<svg width="227" height="35" viewBox="0 0 227 35" fill="none" xmlns="http://www.w3.org/2000/svg">
<path d="M2.616 27C2.064 27 1.584 26.796 1.176 26.388C0.768 25.98 0.564 25.5 0.564 24.948V2.772C0.564 2.22 0.768 1.74 1.176 1.332C1.584 0.923999 2.064 0.719999 2.616 0.719999H4.056C4.608 0.719999 5.088 0.923999 5.496 1.332C5.904 1.74 6.108 2.22 6.108 2.772V24.948C6.108 25.5 5.904 25.98 5.496 26.388C5.088 26.796 4.608 27 4.056 27H2.616ZM14.5163 27C13.9643 27 13.4843 26.796 13.0763 26.388C12.6923 25.98 12.5003 25.5 12.5003 24.948V2.772C12.5003 2.22 12.6923 1.74 13.0763 1.332C13.4843 0.923999 13.9643 0.719999 14.5163 0.719999H15.3083C16.6763 0.719999 17.6843 1.32 18.3323 2.52L27.2243 18.576C27.2243 18.6 27.2363 18.612 27.2603 18.612C27.2843 18.612 27.2963 18.6 27.2963 18.576V2.772C27.2963 2.22 27.5003 1.74 27.9083 1.332C28.3163 0.923999 28.7963 0.719999 29.3483 0.719999H30.1403C30.6923 0.719999 31.1603 0.923999 31.5443 1.332C31.9523 1.74 32.1562 2.22 32.1562 2.772V24.948C32.1562 25.5 31.9523 25.98 31.5443 26.388C31.1603 26.796 30.6923 27 30.1403 27H29.3483C27.9803 27 26.9723 26.4 26.3243 25.2L17.4323 9.144C17.4323 9.12 17.4203 9.108 17.3963 9.108C17.3723 9.108 17.3603 9.12 17.3603 9.144V24.948C17.3603 25.5 17.1563 25.98 16.7483 26.388C16.3403 26.796 15.8603 27 15.3083 27H14.5163ZM45.1199 11.268C43.8959 11.268 42.9479 11.616 42.2759 12.312C41.6279 12.984 41.2199 14.076 41.0519 15.588C41.0519 15.78 41.1479 15.876 41.3399 15.876H48.3959C48.5879 15.876 48.6839 15.78 48.6839 15.588C48.5879 12.708 47.3999 11.268 45.1199 11.268ZM46.0199 27.36C42.8759 27.36 40.4519 26.544 38.7479 24.912C37.0679 23.256 36.2279 20.832 36.2279 17.64C36.2279 14.472 36.9839 12.06 38.4959 10.404C40.0079 8.748 42.1919 7.92 45.0479 7.92C50.3759 7.92 53.1119 10.944 53.2559 16.992C53.2799 17.568 53.0759 18.048 52.6439 18.432C52.2119 18.816 51.7079 19.008 51.1319 19.008H41.3039C41.0879 19.008 41.0039 19.116 41.0519 19.332C41.2199 20.94 41.7479 22.116 42.6359 22.86C43.5479 23.58 44.8679 23.94 46.5959 23.94C47.6759 23.94 48.8759 23.76 50.1959 23.4C50.6279 23.28 51.0239 23.352 51.3839 23.616C51.7679 23.88 51.9599 24.24 51.9599 24.696C51.9599 25.248 51.7919 25.74 51.4559 26.172C51.1439 26.58 50.7239 26.832 50.1959 26.928C48.8519 27.216 47.4599 27.36 46.0199 27.36ZM61.8923 15.192V20.088C61.8923 21.048 62.3003 21.9 63.1163 22.644C63.9563 23.388 64.9283 23.76 66.0323 23.76C67.3043 23.76 68.3123 23.244 69.0563 22.212C69.8003 21.18 70.1723 19.656 70.1723 17.64C70.1723 13.56 68.7923 11.52 66.0323 11.52C64.9283 11.52 63.9563 11.892 63.1163 12.636C62.3003 13.38 61.8923 14.232 61.8923 15.192ZM59.1923 34.92C58.6403 34.92 58.1603 34.716 57.7523 34.308C57.3443 33.9 57.1403 33.42 57.1403 32.868V10.332C57.1403 9.78 57.3443 9.3 57.7523 8.892C58.1603 8.484 58.6403 8.28 59.1923 8.28H59.6243C60.2003 8.28 60.6923 8.484 61.1003 8.892C61.5083 9.276 61.7243 9.756 61.7483 10.332V10.584C61.7483 10.608 61.7603 10.62 61.7843 10.62C61.8083 10.62 61.8323 10.608 61.8563 10.584C62.7203 9.624 63.5843 8.94 64.4483 8.532C65.3123 8.124 66.3203 7.92 67.4723 7.92C69.7283 7.92 71.5283 8.772 72.8723 10.476C74.2163 12.156 74.8883 14.544 74.8883 17.64C74.8883 20.64 74.1803 23.016 72.7643 24.768C71.3723 26.496 69.6083 27.36 67.4723 27.36C65.3843 27.36 63.5723 26.604 62.0363 25.092C62.0123 25.068 61.9883 25.056 61.9643 25.056C61.9403 25.056 61.9283 25.068 61.9283 25.092V32.868C61.9283 33.42 61.7243 33.9 61.3163 34.308C60.9323 34.716 60.4643 34.92 59.9123 34.92H59.1923ZM90.1289 12.924C89.4329 11.916 88.3769 11.412 86.9609 11.412C85.5449 11.412 84.4769 11.916 83.7569 12.924C83.0609 13.908 82.7129 15.48 82.7129 17.64C82.7129 19.8 83.0609 21.384 83.7569 22.392C84.4769 23.376 85.5449 23.868 86.9609 23.868C88.3769 23.868 89.4329 23.376 90.1289 22.392C90.8489 21.384 91.2089 19.8 91.2089 17.64C91.2089 15.48 90.8489 13.908 90.1289 12.924ZM93.6569 24.84C92.0729 26.52 89.8409 27.36 86.9609 27.36C84.0809 27.36 81.8369 26.52 80.2289 24.84C78.6449 23.136 77.8529 20.736 77.8529 17.64C77.8529 14.544 78.6449 12.156 80.2289 10.476C81.8369 8.772 84.0809 7.92 86.9609 7.92C89.8409 7.92 92.0729 8.772 93.6569 10.476C95.2649 12.156 96.0689 14.544 96.0689 17.64C96.0689 20.736 95.2649 23.136 93.6569 24.84ZM101.801 27C101.249 27 100.769 26.796 100.361 26.388C99.9768 25.98 99.7848 25.5 99.7848 24.948V10.332C99.7848 9.78 99.9768 9.3 100.361 8.892C100.769 8.484 101.249 8.28 101.801 8.28H102.305C102.857 8.28 103.325 8.472 103.709 8.856C104.117 9.24 104.333 9.708 104.357 10.26V10.512C104.357 10.536 104.369 10.548 104.393 10.548C104.441 10.548 104.465 10.536 104.465 10.512C105.881 8.784 107.477 7.92 109.253 7.92C110.333 7.92 111.197 8.124 111.845 8.532C112.517 8.94 113.105 9.66 113.609 10.692C113.609 10.716 113.633 10.728 113.681 10.728C113.705 10.728 113.729 10.716 113.753 10.692C115.265 8.844 116.969 7.92 118.865 7.92C120.857 7.92 122.285 8.46 123.149 9.54C124.037 10.62 124.481 12.48 124.481 15.12V24.948C124.481 25.5 124.277 25.98 123.869 26.388C123.485 26.796 123.017 27 122.465 27H121.853C121.301 27 120.821 26.796 120.413 26.388C120.005 25.98 119.801 25.5 119.801 24.948V15.84C119.801 14.088 119.633 12.936 119.297 12.384C118.961 11.832 118.313 11.556 117.353 11.556C116.729 11.556 116.105 11.844 115.481 12.42C114.857 12.996 114.545 13.572 114.545 14.148V24.948C114.545 25.5 114.341 25.98 113.933 26.388C113.525 26.796 113.045 27 112.493 27H111.881C111.329 27 110.849 26.796 110.441 26.388C110.057 25.98 109.865 25.5 109.865 24.948V15.84C109.865 14.112 109.685 12.972 109.325 12.42C108.989 11.844 108.341 11.556 107.381 11.556C106.757 11.556 106.133 11.844 105.509 12.42C104.885 12.996 104.573 13.572 104.573 14.148V24.948C104.573 25.5 104.369 25.98 103.961 26.388C103.553 26.796 103.073 27 102.521 27H101.801ZM135.149 27.36C133.037 27.36 131.501 26.784 130.541 25.632C129.581 24.456 129.101 22.476 129.101 19.692V10.332C129.101 9.78 129.305 9.3 129.713 8.892C130.121 8.484 130.601 8.28 131.153 8.28H131.729C132.281 8.28 132.761 8.484 133.169 8.892C133.577 9.3 133.781 9.78 133.781 10.332V19.188C133.781 20.868 134.009 22.032 134.465 22.68C134.921 23.328 135.689 23.652 136.769 23.652C137.753 23.652 138.665 23.232 139.505 22.392C140.369 21.552 140.801 20.652 140.801 19.692V10.332C140.801 9.78 141.005 9.3 141.413 8.892C141.821 8.484 142.301 8.28 142.853 8.28H143.573C144.125 8.28 144.593 8.484 144.977 8.892C145.385 9.3 145.589 9.78 145.589 10.332V24.948C145.589 25.5 145.385 25.98 144.977 26.388C144.593 26.796 144.125 27 143.573 27H143.105C142.529 27 142.037 26.808 141.629 26.424C141.245 26.016 141.041 25.524 141.017 24.948L140.981 24.696C140.981 24.672 140.969 24.66 140.945 24.66C140.921 24.66 140.897 24.672 140.873 24.696C139.241 26.472 137.333 27.36 135.149 27.36ZM158.578 27.36C155.602 27.36 153.31 26.544 151.702 24.912C150.094 23.256 149.29 20.832 149.29 17.64C149.29 14.496 150.058 12.096 151.594 10.44C153.154 8.76 155.362 7.92 158.218 7.92C159.49 7.92 160.714 8.004 161.89 8.172C162.442 8.244 162.898 8.496 163.258 8.928C163.618 9.36 163.798 9.864 163.798 10.44C163.798 10.92 163.606 11.304 163.222 11.592C162.862 11.88 162.442 11.976 161.962 11.88C161.026 11.688 159.982 11.592 158.83 11.592C157.318 11.592 156.19 12.072 155.446 13.032C154.702 13.992 154.33 15.528 154.33 17.64C154.33 19.8 154.726 21.348 155.518 22.284C156.31 23.22 157.534 23.688 159.19 23.688C160.366 23.688 161.386 23.58 162.25 23.364C162.706 23.244 163.114 23.328 163.474 23.616C163.858 23.904 164.05 24.276 164.05 24.732C164.05 25.308 163.87 25.812 163.51 26.244C163.174 26.676 162.73 26.94 162.178 27.036C160.954 27.252 159.754 27.36 158.578 27.36ZM176.464 11.268C175.24 11.268 174.292 11.616 173.62 12.312C172.972 12.984 172.564 14.076 172.396 15.588C172.396 15.78 172.492 15.876 172.684 15.876H179.74C179.932 15.876 180.028 15.78 180.028 15.588C179.932 12.708 178.744 11.268 176.464 11.268ZM177.364 27.36C174.22 27.36 171.796 26.544 170.092 24.912C168.412 23.256 167.572 20.832 167.572 17.64C167.572 14.472 168.328 12.06 169.84 10.404C171.352 8.748 173.536 7.92 176.392 7.92C181.72 7.92 184.456 10.944 184.6 16.992C184.624 17.568 184.42 18.048 183.988 18.432C183.556 18.816 183.052 19.008 182.476 19.008H172.648C172.432 19.008 172.348 19.116 172.396 19.332C172.564 20.94 173.092 22.116 173.98 22.86C174.892 23.58 176.212 23.94 177.94 23.94C179.02 23.94 180.22 23.76 181.54 23.4C181.972 23.28 182.368 23.352 182.728 23.616C183.112 23.88 183.304 24.24 183.304 24.696C183.304 25.248 183.136 25.74 182.8 26.172C182.488 26.58 182.068 26.832 181.54 26.928C180.196 27.216 178.804 27.36 177.364 27.36ZM190.536 27C189.984 27 189.504 26.796 189.096 26.388C188.688 25.98 188.484 25.5 188.484 24.948V10.332C188.484 9.78 188.688 9.3 189.096 8.892C189.504 8.484 189.984 8.28 190.536 8.28H191.004C191.58 8.28 192.06 8.484 192.444 8.892C192.852 9.276 193.068 9.756 193.092 10.332V10.584C193.092 10.608 193.104 10.62 193.128 10.62C193.152 10.62 193.176 10.608 193.2 10.584C194.832 8.808 196.74 7.92 198.924 7.92C201.108 7.92 202.692 8.544 203.676 9.792C204.684 11.016 205.188 13.068 205.188 15.948V24.948C205.188 25.5 204.984 25.98 204.576 26.388C204.168 26.796 203.688 27 203.136 27H202.524C201.972 27 201.492 26.796 201.084 26.388C200.7 25.98 200.508 25.5 200.508 24.948V16.308C200.508 14.508 200.268 13.284 199.788 12.636C199.332 11.964 198.504 11.628 197.304 11.628C196.32 11.628 195.408 12.048 194.568 12.888C193.728 13.728 193.308 14.628 193.308 15.588V24.948C193.308 25.5 193.104 25.98 192.696 26.388C192.288 26.796 191.808 27 191.256 27H190.536ZM220.98 12.924C220.284 11.916 219.228 11.412 217.812 11.412C216.396 11.412 215.328 11.916 214.608 12.924C213.912 13.908 213.564 15.48 213.564 17.64C213.564 19.8 213.912 21.384 214.608 22.392C215.328 23.376 216.396 23.868 217.812 23.868C219.228 23.868 220.284 23.376 220.98 22.392C221.7 21.384 222.06 19.8 222.06 17.64C222.06 15.48 221.7 13.908 220.98 12.924ZM224.508 24.84C222.924 26.52 220.692 27.36 217.812 27.36C214.932 27.36 212.688 26.52 211.08 24.84C209.496 23.136 208.704 20.736 208.704 17.64C208.704 14.544 209.496 12.156 211.08 10.476C212.688 8.772 214.932 7.92 217.812 7.92C220.692 7.92 222.924 8.772 224.508 10.476C226.116 12.156 226.92 14.544 226.92 17.64C226.92 20.736 226.116 23.136 224.508 24.84Z" fill="#02073E"/>
</svg>
